<?xml version="1.0" encoding="utf-8"?>
<!-- Generator: Adobe Illustrator 23.0.3, SVG Export Plug-In . SVG Version: 6.00 Build 0)  -->
<svg version="1.1" id="Camada_1" xmlns="http://www.w3.org/2000/svg" xmlns:xlink="http://www.w3.org/1999/xlink" x="0px" y="0px"
	 viewBox="0 0 133 52" style="enable-background:new 0 0 133 52;" xml:space="preserve">
<style type="text/css">
	.st0{fill:#149DD8;}
	.st1{opacity:0.4;}
	.st2{opacity:0.2;}
	.st3{fill:#494949;}
</style>
<g>
	<g>
		<g>
			<g>
				<g>
					<g>
						<g>
							<path d="M22.4,30.9c-0.4,0.8-1,1.6-1.7,2.1c-0.7,0.6-1.6,1-2.6,1.3c-1,0.3-2.1,0.5-3.3,0.5c-1.8,0-3.3-0.2-4.6-0.7
								c-1.3-0.5-2.5-1.2-3.6-2.4l2.3-2.3c0.8,0.8,1.7,1.4,2.7,1.7c1,0.3,2,0.5,3.2,0.5c1.5,0,2.7-0.3,3.5-0.9
								c0.8-0.6,1.2-1.5,1.2-2.6c0-1.1-0.3-1.9-0.9-2.4c-0.3-0.3-0.6-0.5-1-0.6c-0.3-0.1-0.9-0.2-1.6-0.4l-2.7-0.4
								c-1.9-0.3-3.3-0.9-4.4-1.9c-1.1-1.1-1.7-2.5-1.7-4.4c0-1,0.2-1.9,0.5-2.7c0.4-0.8,0.9-1.6,1.5-2.2c0.7-0.6,1.5-1.1,2.4-1.4
								c1-0.3,2-0.5,3.2-0.5c1.5,0,2.9,0.2,4,0.6c1.1,0.4,2.2,1.1,3.2,2L20,16.1c-0.7-0.7-1.5-1.2-2.3-1.4c-0.8-0.2-1.7-0.4-2.7-0.4
								c-1.4,0-2.4,0.3-3.1,1c-0.7,0.7-1.1,1.5-1.1,2.6c0,0.4,0.1,0.8,0.2,1.2c0.1,0.4,0.4,0.7,0.7,1c0.6,0.5,1.5,0.9,2.6,1.1
								l2.6,0.4c1.1,0.2,1.9,0.4,2.6,0.7c0.6,0.3,1.2,0.6,1.7,1.1c0.6,0.6,1.1,1.2,1.4,2C22.9,26.1,23,27,23,28
								C23,29.1,22.8,30,22.4,30.9z"/>
						</g>
					</g>
				</g>
				<g>
					<g>
						<g>
							<path d="M84.8,34.6v-1.5c-0.6,0.6-1.2,1-1.9,1.3c-0.6,0.3-1.5,0.4-2.5,0.4c-1,0-1.9-0.1-2.6-0.4c-0.7-0.2-1.3-0.6-1.8-1.1
								c-0.9-0.9-1.3-2.1-1.3-3.5c0-1.4,0.5-2.5,1.4-3.4c0.9-0.9,2.4-1.3,4.3-1.3h4.3v-1.2c0-1-0.3-1.8-0.8-2.3
								c-0.6-0.5-1.5-0.8-2.8-0.8c-0.9,0-1.6,0.1-2.1,0.4c-0.5,0.2-1,0.6-1.5,1.2l-2.2-2c0.8-0.9,1.6-1.5,2.5-1.9
								c0.9-0.3,2-0.5,3.4-0.5c4.5,0,6.8,1.9,6.8,5.6v11H84.8z M84.7,27.3h-3.9c-1,0-1.7,0.2-2.2,0.6c-0.5,0.4-0.7,1-0.7,1.8
								c0,0.8,0.2,1.3,0.7,1.7c0.5,0.4,1.2,0.6,2.3,0.6c0.6,0,1.2,0,1.7-0.1c0.5-0.1,1-0.4,1.4-0.8c0.5-0.5,0.7-1.3,0.7-2.4V27.3z"
								/>
						</g>
					</g>
				</g>
				<g>
					<g>
						<g>
							<path d="M102.8,28.3c0,0.6-0.1,1.3-0.2,1.9c-0.1,0.6-0.3,1.2-0.6,1.7c-0.2,0.5-0.6,1-1,1.4c-0.5,0.5-1,0.8-1.7,1.1
								c-0.7,0.3-1.4,0.4-2.3,0.4c-0.9,0-1.7-0.1-2.4-0.4c-0.7-0.3-1.3-0.8-1.9-1.5v8.3h-3.3V18.1h3.2v1.8c0.6-0.8,1.3-1.3,2-1.5
								c0.7-0.3,1.5-0.4,2.4-0.4c0.8,0,1.6,0.1,2.3,0.4c0.7,0.3,1.3,0.6,1.7,1.1c0.4,0.4,0.7,0.9,1,1.4c0.2,0.5,0.4,1.1,0.6,1.7
								c0.1,0.6,0.2,1.2,0.2,1.9s0,1.3,0,1.9C102.9,27,102.9,27.6,102.8,28.3z M99.4,24.2c-0.1-0.7-0.2-1.2-0.5-1.7
								c-0.2-0.5-0.6-0.9-1-1.2c-0.5-0.3-1-0.4-1.8-0.4c-0.8,0-1.4,0.1-1.8,0.4c-0.4,0.3-0.8,0.7-1,1.2c-0.2,0.5-0.4,1.1-0.5,1.7
								c-0.1,0.7-0.1,1.4-0.1,2.1c0,0.7,0,1.4,0.1,2.1c0.1,0.7,0.2,1.2,0.5,1.8c0.2,0.5,0.6,0.9,1,1.2c0.4,0.3,1,0.4,1.8,0.4
								c0.7,0,1.3-0.1,1.8-0.4c0.5-0.3,0.8-0.7,1-1.2c0.2-0.5,0.4-1.1,0.5-1.8c0.1-0.7,0.1-1.4,0.1-2.1
								C99.6,25.6,99.5,24.9,99.4,24.2z"/>
						</g>
					</g>
				</g>
				<g>
					<g>
						<g>
							<path d="M30.3,37.9c-0.3,0.9-0.7,1.5-1.2,2c-0.5,0.5-1,0.8-1.6,0.9c-0.6,0.2-1.2,0.3-1.8,0.3h-1.3v-3h0.8
								c0.7,0,1.2-0.1,1.5-0.4c0.3-0.2,0.6-0.7,0.8-1.4l0.9-2.6l-5.7-15.7h3.5l3.9,11.6L34,18.1h3.5L30.3,37.9z"/>
						</g>
					</g>
				</g>
				<g>
					<g>
						<g>
							<path d="M50.8,31.8c-0.3,0.6-0.8,1.2-1.4,1.6c-0.6,0.4-1.3,0.8-2.2,1c-0.8,0.2-1.8,0.3-2.7,0.3c-1.3,0-2.6-0.2-3.7-0.5
								s-2.2-0.9-3.2-1.9l2.2-2.2c0.7,0.7,1.4,1.2,2.3,1.4s1.7,0.3,2.5,0.3c1,0,1.9-0.2,2.6-0.6c0.7-0.4,1-0.9,1-1.7
								c0-0.6-0.2-1-0.5-1.3c-0.3-0.3-0.9-0.5-1.7-0.6l-2.6-0.2c-1.6-0.1-2.8-0.6-3.6-1.3c-0.8-0.7-1.3-1.8-1.3-3.3
								c0-0.8,0.2-1.5,0.5-2.1c0.3-0.6,0.8-1.2,1.3-1.6c0.6-0.4,1.2-0.7,2-1c0.7-0.2,1.6-0.3,2.4-0.3c1.2,0,2.4,0.1,3.4,0.4
								c1,0.3,1.9,0.8,2.7,1.4l-2.1,2.1c-0.5-0.4-1.1-0.7-1.8-0.9c-0.7-0.2-1.4-0.3-2.2-0.3c-1,0-1.7,0.2-2.2,0.6
								c-0.5,0.4-0.7,0.9-0.7,1.5c0,0.5,0.2,0.9,0.5,1.2c0.3,0.3,0.9,0.5,1.8,0.6l2.6,0.2c1.6,0.1,2.8,0.6,3.6,1.3
								c0.9,0.7,1.3,1.9,1.3,3.3C51.3,30.4,51.1,31.2,50.8,31.8z"/>
						</g>
					</g>
				</g>
				<g>
					<g>
						<g>
							<path class="st0" d="M56.4,34.6H55c-1.4,0-2.5-1.1-2.5-2.5V14.2c0-1.4,1.1-2.5,2.5-2.5h1.4c1.4,0,2.5,1.1,2.5,2.5v17.9
								C58.8,33.5,57.7,34.6,56.4,34.6z"/>
						</g>
					</g>
				</g>
				<g>
					<g>
						<g>
							<path class="st0" d="M70.8,34.6h-1.4c-1.4,0-2.5-1.1-2.5-2.5V14.2c0-1.4,1.1-2.5,2.5-2.5h1.4c1.4,0,2.5,1.1,2.5,2.5v17.9
								C73.3,33.5,72.2,34.6,70.8,34.6z"/>
						</g>
					</g>
				</g>
				<g>
					<g>
						<g>
							<path class="st0" d="M62.9,30L62.9,30c-1.7,0-3.2-1.4-3.2-3.2v-8.2c0-1.7,1.4-3.2,3.2-3.2h0c1.7,0,3.2,1.4,3.2,3.2v8.2
								C66.1,28.6,64.7,30,62.9,30z"/>
						</g>
					</g>
				</g>
			</g>
		</g>
		<g>
			<g>
				<g>
					<path class="st0" d="M107.6,23.1h-0.4v-4.6l-0.9,0.8v-0.4l0.9-0.8h0.4V23.1z"/>
				</g>
				<g>
					<path class="st0" d="M114,19.4c0,0.3-0.1,0.7-0.3,1.1l-1.3,2.6H112l1.2-2.3c-0.2,0.1-0.4,0.1-0.6,0.1c-0.4,0-0.7-0.1-1-0.4
						c-0.2-0.3-0.3-0.6-0.3-1c0-0.4,0.1-0.8,0.3-1c0.2-0.3,0.6-0.4,1-0.4c0.4,0,0.8,0.1,1,0.4C113.8,18.6,114,19,114,19.4z
						 M113.6,19.4c0-0.3-0.1-0.6-0.2-0.8c-0.2-0.2-0.4-0.3-0.7-0.3c-0.3,0-0.6,0.1-0.7,0.3c-0.2,0.2-0.2,0.5-0.2,0.8
						c0,0.3,0.1,0.6,0.2,0.8c0.2,0.2,0.4,0.3,0.7,0.3c0.3,0,0.6-0.1,0.7-0.3C113.5,20,113.6,19.7,113.6,19.4z"/>
				</g>
				<g>
					<path class="st0" d="M119.4,19.4c0,0.3-0.1,0.7-0.3,1.1l-1.3,2.6h-0.4l1.2-2.3c-0.2,0.1-0.4,0.1-0.6,0.1c-0.4,0-0.7-0.1-1-0.4
						c-0.2-0.3-0.3-0.6-0.3-1c0-0.4,0.1-0.8,0.3-1c0.2-0.3,0.6-0.4,1-0.4c0.4,0,0.8,0.1,1,0.4C119.3,18.6,119.4,19,119.4,19.4z
						 M119.1,19.4c0-0.3-0.1-0.6-0.2-0.8c-0.2-0.2-0.4-0.3-0.7-0.3c-0.3,0-0.6,0.1-0.7,0.3c-0.2,0.2-0.2,0.5-0.2,0.8
						c0,0.3,0.1,0.6,0.2,0.8c0.2,0.2,0.4,0.3,0.7,0.3c0.3,0,0.6-0.1,0.7-0.3C119,20,119.1,19.7,119.1,19.4z"/>
				</g>
				<g>
					<path class="st0" d="M124.9,19.4c0,0.3-0.1,0.7-0.3,1.1l-1.3,2.6H123l1.2-2.3c-0.2,0.1-0.4,0.1-0.6,0.1c-0.4,0-0.7-0.1-1-0.4
						c-0.2-0.3-0.3-0.6-0.3-1c0-0.4,0.1-0.8,0.3-1c0.2-0.3,0.6-0.4,1-0.4c0.4,0,0.8,0.1,1,0.4C124.8,18.6,124.9,19,124.9,19.4z
						 M124.5,19.4c0-0.3-0.1-0.6-0.2-0.8c-0.2-0.2-0.4-0.3-0.7-0.3c-0.3,0-0.6,0.1-0.7,0.3c-0.2,0.2-0.2,0.5-0.2,0.8
						c0,0.3,0.1,0.6,0.2,0.8c0.2,0.2,0.4,0.3,0.7,0.3c0.3,0,0.6-0.1,0.7-0.3C124.5,20,124.5,19.7,124.5,19.4z"/>
				</g>
			</g>
			<g class="st1">
				<g>
					<path class="st0" d="M108.5,14.1c0,0.4-0.1,0.7-0.4,1c-0.2,0.3-0.6,0.4-1,0.4c-0.4,0-0.7-0.1-1-0.4c-0.2-0.3-0.4-0.6-0.4-1
						v-2.4c0-0.4,0.1-0.7,0.4-1c0.2-0.3,0.6-0.4,1-0.4c0.4,0,0.7,0.1,1,0.4c0.2,0.3,0.4,0.6,0.4,1V14.1z M108.1,14.1v-2.4
						c0-0.3-0.1-0.6-0.2-0.8c-0.2-0.2-0.4-0.3-0.7-0.3c-0.3,0-0.5,0.1-0.7,0.3c-0.2,0.2-0.3,0.5-0.3,0.8v2.4c0,0.3,0.1,0.6,0.2,0.8
						c0.2,0.2,0.4,0.3,0.7,0.3c0.3,0,0.5-0.1,0.7-0.3C108,14.6,108.1,14.4,108.1,14.1z"/>
				</g>
				<g>
					<path class="st0" d="M113,15.4h-0.4v-4.6l-0.9,0.8v-0.4l0.9-0.8h0.4V15.4z"/>
				</g>
				<g>
					<path class="st0" d="M118.5,15.4h-0.4v-4.6l-0.9,0.8v-0.4l0.9-0.8h0.4V15.4z"/>
				</g>
				<g>
					<path class="st0" d="M124.9,14.1c0,0.4-0.1,0.7-0.4,1c-0.2,0.3-0.6,0.4-1,0.4c-0.4,0-0.7-0.1-1-0.4c-0.2-0.3-0.4-0.6-0.4-1
						v-2.4c0-0.4,0.1-0.7,0.4-1c0.2-0.3,0.6-0.4,1-0.4c0.4,0,0.7,0.1,1,0.4c0.2,0.3,0.4,0.6,0.4,1V14.1z M124.5,14.1v-2.4
						c0-0.3-0.1-0.6-0.2-0.8c-0.2-0.2-0.4-0.3-0.7-0.3s-0.5,0.1-0.7,0.3c-0.2,0.2-0.3,0.5-0.3,0.8v2.4c0,0.3,0.1,0.6,0.2,0.8
						c0.2,0.2,0.4,0.3,0.7,0.3s0.5-0.1,0.7-0.3C124.5,14.6,124.5,14.4,124.5,14.1z"/>
				</g>
			</g>
			<g class="st1">
				<g>
					<g>
						<path class="st0" d="M108.5,41c0,0.4-0.1,0.7-0.4,1c-0.2,0.3-0.6,0.4-1,0.4c-0.4,0-0.7-0.1-1-0.4c-0.2-0.3-0.4-0.6-0.4-1v-2.4
							c0-0.4,0.1-0.7,0.4-1c0.2-0.3,0.6-0.4,1-0.4c0.4,0,0.7,0.1,1,0.4c0.2,0.3,0.4,0.6,0.4,1V41z M108.1,41v-2.4
							c0-0.3-0.1-0.6-0.2-0.8c-0.2-0.2-0.4-0.3-0.7-0.3c-0.3,0-0.5,0.1-0.7,0.3c-0.2,0.2-0.3,0.5-0.3,0.8V41c0,0.3,0.1,0.6,0.2,0.8
							c0.2,0.2,0.4,0.3,0.7,0.3c0.3,0,0.5-0.1,0.7-0.3C108,41.5,108.1,41.3,108.1,41z"/>
					</g>
					<g>
						<path class="st0" d="M113,42.3h-0.4v-4.6l-0.9,0.8v-0.4l0.9-0.8h0.4V42.3z"/>
					</g>
					<g>
						<path class="st0" d="M118.5,42.3h-0.4v-4.6l-0.9,0.8v-0.4l0.9-0.8h0.4V42.3z"/>
					</g>
					<g>
						<path class="st0" d="M124.9,41c0,0.4-0.1,0.7-0.4,1c-0.2,0.3-0.6,0.4-1,0.4c-0.4,0-0.7-0.1-1-0.4c-0.2-0.3-0.4-0.6-0.4-1v-2.4
							c0-0.4,0.1-0.7,0.4-1c0.2-0.3,0.6-0.4,1-0.4c0.4,0,0.7,0.1,1,0.4c0.2,0.3,0.4,0.6,0.4,1V41z M124.5,41v-2.4
							c0-0.3-0.1-0.6-0.2-0.8c-0.2-0.2-0.4-0.3-0.7-0.3s-0.5,0.1-0.7,0.3c-0.2,0.2-0.3,0.5-0.3,0.8V41c0,0.3,0.1,0.6,0.2,0.8
							c0.2,0.2,0.4,0.3,0.7,0.3s0.5-0.1,0.7-0.3C124.5,41.5,124.5,41.3,124.5,41z"/>
					</g>
				</g>
			</g>
			<g class="st2">
				<g>
					<g>
						<path class="st0" d="M107.6,50.1h-0.4v-4.6l-0.9,0.8v-0.4l0.9-0.8h0.4V50.1z"/>
					</g>
					<g>
						<path class="st0" d="M114,48.8c0,0.4-0.1,0.7-0.4,1c-0.2,0.3-0.6,0.4-1,0.4c-0.4,0-0.7-0.1-1-0.4c-0.2-0.3-0.4-0.6-0.4-1v-2.4
							c0-0.4,0.1-0.7,0.4-1c0.2-0.3,0.6-0.4,1-0.4c0.4,0,0.7,0.1,1,0.4c0.2,0.3,0.4,0.6,0.4,1V48.8z M113.6,48.8v-2.4
							c0-0.3-0.1-0.6-0.2-0.8c-0.2-0.2-0.4-0.3-0.7-0.3c-0.3,0-0.5,0.1-0.7,0.3c-0.2,0.2-0.3,0.5-0.3,0.8v2.4c0,0.3,0.1,0.6,0.2,0.8
							c0.2,0.2,0.4,0.3,0.7,0.3s0.5-0.1,0.7-0.3C113.5,49.3,113.6,49.1,113.6,48.8z"/>
					</g>
					<g>
						<path class="st0" d="M118.5,50.1h-0.4v-4.6l-0.9,0.8v-0.4l0.9-0.8h0.4V50.1z"/>
					</g>
					<g>
						<path class="st0" d="M124.9,48.8c0,0.4-0.1,0.7-0.4,1c-0.2,0.3-0.6,0.4-1,0.4c-0.4,0-0.7-0.1-1-0.4c-0.2-0.3-0.4-0.6-0.4-1
							v-2.4c0-0.4,0.1-0.7,0.4-1c0.2-0.3,0.6-0.4,1-0.4c0.4,0,0.7,0.1,1,0.4c0.2,0.3,0.4,0.6,0.4,1V48.8z M124.5,48.8v-2.4
							c0-0.3-0.1-0.6-0.2-0.8c-0.2-0.2-0.4-0.3-0.7-0.3s-0.5,0.1-0.7,0.3c-0.2,0.2-0.3,0.5-0.3,0.8v2.4c0,0.3,0.1,0.6,0.2,0.8
							c0.2,0.2,0.4,0.3,0.7,0.3s0.5-0.1,0.7-0.3C124.5,49.3,124.5,49.1,124.5,48.8z"/>
					</g>
				</g>
			</g>
			<g class="st2">
				<g>
					<path class="st0" d="M107.6,7.7h-0.4V3.1l-0.9,0.8V3.5l0.9-0.8h0.4V7.7z"/>
				</g>
				<g>
					<path class="st0" d="M114,6.4c0,0.4-0.1,0.7-0.4,1c-0.2,0.3-0.6,0.4-1,0.4c-0.4,0-0.7-0.1-1-0.4c-0.2-0.3-0.4-0.6-0.4-1V4
						c0-0.4,0.1-0.7,0.4-1c0.2-0.3,0.6-0.4,1-0.4c0.4,0,0.7,0.1,1,0.4c0.2,0.3,0.4,0.6,0.4,1V6.4z M113.6,6.4V4
						c0-0.3-0.1-0.6-0.2-0.8c-0.2-0.2-0.4-0.3-0.7-0.3c-0.3,0-0.5,0.1-0.7,0.3c-0.2,0.2-0.3,0.5-0.3,0.8v2.4c0,0.3,0.1,0.6,0.2,0.8
						c0.2,0.2,0.4,0.3,0.7,0.3s0.5-0.1,0.7-0.3C113.5,6.9,113.6,6.7,113.6,6.4z"/>
				</g>
				<g>
					<path class="st0" d="M118.5,7.7h-0.4V3.1l-0.9,0.8V3.5l0.9-0.8h0.4V7.7z"/>
				</g>
				<g>
					<path class="st0" d="M124.9,6.4c0,0.4-0.1,0.7-0.4,1c-0.2,0.3-0.6,0.4-1,0.4c-0.4,0-0.7-0.1-1-0.4c-0.2-0.3-0.4-0.6-0.4-1V4
						c0-0.4,0.1-0.7,0.4-1c0.2-0.3,0.6-0.4,1-0.4c0.4,0,0.7,0.1,1,0.4c0.2,0.3,0.4,0.6,0.4,1V6.4z M124.5,6.4V4
						c0-0.3-0.1-0.6-0.2-0.8c-0.2-0.2-0.4-0.3-0.7-0.3s-0.5,0.1-0.7,0.3c-0.2,0.2-0.3,0.5-0.3,0.8v2.4c0,0.3,0.1,0.6,0.2,0.8
						c0.2,0.2,0.4,0.3,0.7,0.3s0.5-0.1,0.7-0.3C124.5,6.9,124.5,6.7,124.5,6.4z"/>
				</g>
			</g>
			<g>
				<g>
					<path d="M108.5,32.2v2.4h-0.9v-0.3c-0.1,0.1-0.2,0.2-0.4,0.3c-0.1,0.1-0.3,0.1-0.5,0.1c-0.4,0-0.7-0.1-0.9-0.3
						c-0.2-0.2-0.3-0.5-0.3-0.8c0-0.3,0.1-0.6,0.3-0.8c0.2-0.2,0.5-0.3,0.9-0.3h0.8v-0.3c0-0.4-0.2-0.6-0.6-0.6
						c-0.2,0-0.3,0-0.4,0.1c-0.1,0.1-0.1,0.2-0.1,0.3v0h-0.8v0c0-0.3,0.1-0.6,0.4-0.8c0.2-0.2,0.6-0.3,1-0.3c0.5,0,0.8,0.1,1.1,0.3
						C108.4,31.5,108.5,31.8,108.5,32.2z M107.6,33.3v-0.3H107c-0.4,0-0.6,0.1-0.6,0.4c0,0.3,0.2,0.5,0.5,0.5c0.2,0,0.4-0.1,0.5-0.2
						C107.6,33.7,107.6,33.6,107.6,33.3z"/>
				</g>
				<g>
					<path d="M111.9,31v0.3c0.1-0.1,0.2-0.2,0.4-0.3c0.2-0.1,0.3-0.1,0.5-0.1c0.4,0,0.7,0.1,0.9,0.4c0.2,0.2,0.3,0.6,0.3,1v2.4h-0.9
						v-2.3c0-0.2-0.1-0.4-0.2-0.5c-0.1-0.1-0.2-0.2-0.4-0.2c-0.2,0-0.3,0.1-0.4,0.2c-0.1,0.1-0.2,0.3-0.2,0.5v2.3h-0.9V31H111.9z"/>
				</g>
				<g>
					<path d="M116.6,33.2v-0.7c0-0.5,0.1-0.9,0.4-1.2c0.3-0.3,0.6-0.4,1.1-0.4c0.5,0,0.8,0.1,1.1,0.4c0.3,0.3,0.4,0.6,0.4,1.2v0.7
						c0,0.5-0.1,0.9-0.4,1.2c-0.3,0.3-0.6,0.4-1.1,0.4c-0.5,0-0.8-0.1-1.1-0.4C116.7,34.1,116.6,33.7,116.6,33.2z M118.7,32.5
						c0-0.5-0.2-0.8-0.6-0.8c-0.4,0-0.6,0.3-0.6,0.8v0.7c0,0.5,0.2,0.8,0.6,0.8c0.4,0,0.6-0.3,0.6-0.8V32.5z"/>
				</g>
				<g>
					<path d="M122,33.6L122,33.6l0.8,0v0c0,0.1,0.1,0.2,0.2,0.3c0.1,0.1,0.3,0.1,0.4,0.1c0.2,0,0.3,0,0.5-0.1
						c0.1-0.1,0.2-0.2,0.2-0.3c0-0.1,0-0.2-0.1-0.3c-0.1-0.1-0.2-0.1-0.4-0.1l-0.4-0.1c-0.4-0.1-0.6-0.2-0.8-0.3
						c-0.2-0.2-0.3-0.4-0.3-0.7c0-0.4,0.1-0.6,0.4-0.8c0.3-0.2,0.6-0.3,1-0.3c0.3,0,0.5,0,0.7,0.1c0.2,0.1,0.4,0.2,0.5,0.4
						c0.1,0.2,0.2,0.3,0.2,0.6v0H124v0c0-0.1-0.1-0.2-0.2-0.3c-0.1-0.1-0.2-0.1-0.4-0.1c-0.2,0-0.3,0-0.4,0.1
						c-0.1,0.1-0.1,0.2-0.1,0.3c0,0.1,0,0.2,0.1,0.3c0.1,0.1,0.2,0.1,0.4,0.1l0.4,0.1c0.4,0.1,0.6,0.2,0.8,0.3
						c0.2,0.2,0.3,0.4,0.3,0.7c0,0.4-0.1,0.7-0.4,0.9c-0.3,0.2-0.6,0.3-1.1,0.3c-0.4,0-0.8-0.1-1-0.3C122.1,34.2,122,33.9,122,33.6z
						"/>
				</g>
			</g>
			<g>
				<g>
					<path d="M107.3,26.4c0.2-0.2,0.3-0.5,0.3-0.7v-0.1c0-0.2,0-0.3-0.1-0.4c-0.1-0.1-0.2-0.1-0.4-0.1c-0.2,0-0.3,0.1-0.4,0.2
						c-0.1,0.1-0.1,0.2-0.1,0.4v0.1h-0.9v-0.2c0-0.3,0.1-0.5,0.2-0.7c0.1-0.2,0.3-0.4,0.5-0.5c0.2-0.1,0.5-0.2,0.8-0.2
						c0.3,0,0.5,0.1,0.8,0.2c0.2,0.1,0.4,0.3,0.5,0.5c0.1,0.2,0.2,0.4,0.2,0.7v0.1c0,0.2,0,0.4-0.1,0.6c-0.1,0.2-0.2,0.4-0.3,0.6
						l-1.2,1.6h1.7v0.8h-2.8v-0.7L107.3,26.4z"/>
				</g>
				<g>
					<path d="M110.8,27.6v-1.7c0-0.5,0.1-0.9,0.4-1.2c0.2-0.3,0.6-0.4,1.1-0.4c0.5,0,0.9,0.1,1.1,0.4c0.2,0.3,0.4,0.7,0.4,1.2v1.7
						c0,0.6-0.1,1-0.4,1.3c-0.2,0.3-0.6,0.4-1.1,0.4c-0.5,0-0.9-0.1-1.1-0.4C110.9,28.6,110.8,28.2,110.8,27.6z M112.8,27.5V26
						c0-0.4,0-0.6-0.1-0.7c-0.1-0.1-0.2-0.2-0.4-0.2c-0.2,0-0.3,0.1-0.4,0.2c-0.1,0.1-0.1,0.4-0.1,0.7v1.5c0,0.4,0,0.6,0.1,0.7
						c0.1,0.1,0.2,0.2,0.4,0.2c0.2,0,0.3-0.1,0.4-0.2C112.8,28.1,112.8,27.9,112.8,27.5z"/>
				</g>
				<g>
					<path class="st0" d="M118.2,29.2h-0.4v-4.6l-0.9,0.8V25l0.9-0.8h0.4V29.2z"/>
				</g>
				<g>
					<path class="st0" d="M124.6,25.5c0,0.3-0.1,0.7-0.3,1.1l-1.3,2.6h-0.4l1.2-2.3c-0.2,0.1-0.4,0.1-0.6,0.1c-0.4,0-0.7-0.1-1-0.4
						c-0.2-0.3-0.3-0.6-0.3-1c0-0.4,0.1-0.8,0.3-1c0.2-0.3,0.6-0.4,1-0.4c0.4,0,0.8,0.1,1,0.4C124.4,24.8,124.6,25.1,124.6,25.5z
						 M124.2,25.6c0-0.3-0.1-0.6-0.2-0.8c-0.2-0.2-0.4-0.3-0.7-0.3c-0.3,0-0.6,0.1-0.7,0.3c-0.2,0.2-0.2,0.5-0.2,0.8
						c0,0.3,0.1,0.6,0.2,0.8c0.2,0.2,0.4,0.3,0.7,0.3c0.3,0,0.6-0.1,0.7-0.3C124.1,26.1,124.2,25.9,124.2,25.6z"/>
				</g>
			</g>
		</g>
	</g>
	<g id="Logo_SysMap_Solutions_1_">
		<g>
			<g>
				<g>
					<path class="st3" d="M42.7,38c0.3,0.1,0.4,0.3,0.4,0.7c0,0,0.1,0.1,0.1,0.1c0,0.2-0.3,0.4-0.6,0.5c-0.2-0.2,0.1-0.2,0-0.3
						c-0.8,0-1.3,0.2-2,0.7v0.1l0.3,0.2c0.4,0.2,0.7,0.4,0.9,0.6l0.1-0.1c0.2,0.3,0.4,0.6,0.4,0.8l0,0.7l-0.1,0
						c-0.2,0.3-0.7,0.6-1.2,0.8c-0.3-0.1-0.4-0.1-0.4,0.2c-0.4,0.1-0.8,0.2-0.9,0.2c-0.1,0-0.3-0.1-0.5-0.3
						c-0.3-0.1-0.4-0.3-0.4-0.4c-0.1-0.1-0.2-0.3-0.2-0.4c0-0.2,0.1-0.3,0.3-0.4c0.1,0.1,0.4,0.4,0.5,0.4c0.4,0,1.2-0.2,1.7-0.7
						v-0.1c-0.2-0.2-0.4-0.6-0.5-0.5c-0.2-0.3-0.3-0.4-0.5-0.3c-0.1-0.1-0.3-0.3-0.4-0.5c0-0.3-0.1-0.6-0.1-0.7
						c0-0.7,1.4-1.4,2.4-1.4C42.2,37.8,42.5,37.8,42.7,38L42.7,38z M40.5,42.8l-0.3,0.1l0,0.1L40.5,42.8L40.5,42.8z M41.2,39.1
						c-0.3,0.1-0.6,0.2-0.6,0.3L41.2,39.1L41.2,39.1z M42.8,39.2l0.2-0.1C43,39.2,43,39.2,42.8,39.2L42.8,39.2z"/>
				</g>
				<g>
					<path class="st3" d="M47.8,41.1c0,0.1,0,0.2-0.1,0.2l-0.1-0.1c-0.1,0-0.1,0-0.1,0.1c-0.1,0-0.2,0.1-0.2,0.2
						c0,0.1-0.1,0.1-0.2,0.1c-0.1,0.1-0.2,0.2-0.3,0.3l-0.1-0.1c-0.2,0.1-0.1,0.2-0.3,0.3c-0.1,0.1-0.3,0.1-0.4,0.1
						c0,0,0.1,0.1,0.1,0.1l-0.1,0l-0.2-0.1c-0.1,0.1,0,0.3-0.2,0.3c-0.2,0.1-0.4,0.1-0.6,0.2c-0.1-0.1-0.3-0.1-0.4,0
						c-0.3-0.2-0.6-0.5-0.9-0.6c-0.2-0.2-0.3-0.6-0.3-1c0-2,2.5-3.3,3.1-3.3c0.2,0,0.4,0.1,0.6,0.3c0,0.4,0.4,0.7,0.7,0.9
						c0.3,0.2,0.4,0.6,0.4,1.1C48.2,40.5,48.1,40.9,47.8,41.1z M46.9,39.4C46.9,39.4,46.8,39.3,46.9,39.4c-0.1-0.1-0.1,0-0.2,0
						c-0.1,0-0.1-0.1-0.1-0.1c-0.4,0-1.2,0.5-1.5,1c-0.4,0.2-0.7,0.7-0.8,1.2c0.2,0,0.4,0,0.6-0.1l1.5-0.6c0.2-0.1,0.5-0.2,0.7-0.4
						l0.4-0.5L46.9,39.4z M44.8,40.4c-0.1-0.1-0.3,0-0.3,0.1c0,0,0,0.1,0.1,0.1L44.8,40.4z M44.9,42.7c0,0-0.1-0.1-0.1-0.1
						c0,0-0.1,0-0.1,0L44.9,42.7z M46,42.1C46,42.1,45.9,42.2,46,42.1c0,0.1,0.1,0.1,0.1,0.1C46.1,42.1,46,42.1,46,42.1z M46.4,41.8
						c-0.1,0.1-0.2,0.1-0.2,0.2L46.4,41.8L46.4,41.8z M46.6,41.6l-0.1,0.1l0,0.1l0.2-0.1C46.7,41.8,46.7,41.7,46.6,41.6z"/>
				</g>
				<g>
					<path class="st3" d="M53.1,41.2c-0.2,0.1-0.3,0.1-0.4,0.1c-0.1,0-0.1,0-0.1,0c-0.1,0.1,0.1,0.3,0.7,0c0,0,0.1,0,0.1,0
						c-0.2,0.1-0.5,0.3-0.6,0.3c-0.2,0-0.3,0-0.5,0.1c-0.5,0.2-1.3,0.5-1.9,0.7c-0.1,0-0.3,0.2-0.4,0.2c-0.1,0-0.3,0-0.4,0
						c-0.1,0-0.1,0-0.1-0.1h-0.2c-0.1-0.1-0.3-0.4-0.4-0.4h-0.1c0.1-1.5,1.6-3.7,2.4-4.6v-0.1c0.5,0,0.7,0.4,0.7,0.8
						c0,0.1-0.4,1-0.6,1.3c-0.1,0.2-0.4,0.4-0.5,0.6c-0.1,0.1-0.1,0.3-0.2,0.4c-0.1,0.2-0.4,0.3-0.3,0.5c0.6-0.2,0.7-0.2,0.7-0.2
						c0.1,0,0.2,0,0.3,0c0.1,0,0.3,0,0.3,0.2c0,0,0.4-0.2,0.4-0.2c0.1,0,0.1,0,0.2,0c0.1,0,0.5-0.1,0.8-0.2c0,0,0,0,0.1,0v0
						c-0.3,0.1-0.6,0.2-0.8,0.3l0.1,0c0.3-0.1,0.8-0.3,1.1-0.4c0.1,0,0.2,0.1,0.2,0.1c0.1,0,0.3-0.2,0.3-0.1
						C54,40.9,53.5,41.1,53.1,41.2z M50.1,40.7C50,40.8,49.9,41,50,41L50.1,40.7L50.1,40.7z M52.2,41.6c-0.4,0.1-1.4,0.4-1.9,0.7
						l0,0l2-0.7L52.2,41.6z M50.6,40c-0.1,0-0.1,0.1-0.1,0.1h0.1V40z M51.6,41.2l0.2-0.1C51.8,41.1,51.7,41.1,51.6,41.2L51.6,41.2z
						 M53.2,40.8C53.2,40.8,53.1,40.7,53.2,40.8L53.2,40.8c0.2-0.1,0.2-0.1,0.1,0L53.2,40.8z M53.4,41.4c-0.1,0-0.1,0-0.1,0v0
						c0.5-0.2,0.5-0.2,0.6-0.2L53.4,41.4z M53.7,40.8c0,0-0.1-0.1-0.1-0.1c0,0,0.3-0.1,0.3-0.1C53.9,40.7,53.8,40.7,53.7,40.8z"/>
				</g>
				<g>
					<path class="st3" d="M59,39.2c-0.2,0-0.4,0.1-0.2,0.2c0.1,0,0,0.2-0.1,0.1l-0.1-0.1c-0.1,0.2-0.2,0.5-0.1,0.5l-0.1,0.2
						c-0.2,0-0.2,0.2-0.7,0.8l0.1,0.1c0.2-0.3,0.4-0.5,0.6-0.8c0.1,0.1,0,0.1,0,0.2c-1.2,2.1-2.9,2.4-3.3,2.4c-0.1,0-0.1,0-0.1,0
						c0,0,0,0-0.1,0c-0.1,0,0,0,0,0c0,0,0,0,0,0c-0.2,0-0.3-0.2-0.5-0.4l-0.1,0c-0.3-0.2-0.5-0.6-0.5-1c0-0.3,0.1-0.7,0.2-1
						c0.4-0.8,1-2.3,1.3-3c0.1-0.1,0.2-0.1,0.3-0.1c0.2,0,0.4,0.7,0.5,0.8l0.1-0.1v0.2c-0.2,0.4-0.6,1.2-0.8,1.6c0-0.1,0-0.1,0-0.2
						c0.1,0,0-0.1-0.1-0.1c-0.2,0.3,0,0.4-0.1,0.6c0,0.1-0.1,0.2-0.1,0.3c-0.1,0-0.2,0.1-0.2,0.1c0,0,0.1,0,0.1,0h0
						c-0.1,0.1-0.1,0.3-0.2,0.4c0,0,0-0.1,0-0.2l0,0c-0.1,0.1-0.1,0.3-0.1,0.4c0,0.1,0,0.1,0.1,0.1c0,0.1-0.1,0.2-0.1,0.2
						c1.7,0,2.4-1.3,3.1-2.7c0-0.1,0.2,0,0.2-0.1c0.1,0,0-0.1-0.1-0.1c0.1-0.3,0.3-0.8,0.3-0.9c0-0.1,0.1-0.1,0.1-0.1
						c0,0,0.1,0.1,0.2,0.1c0.1,0.1,0.2,0.1,0.2,0.1c0,0.1,0.1,0.3,0.1,0.4c0,0.2,0,0.4,0.2,0.4L59,39.2z M55.6,42.6
						c-0.1-0.2-0.4-0.1-0.3,0c0,0,0.1,0,0.1,0S55.5,42.6,55.6,42.6z M55.4,39.6C55.4,39.6,55.4,39.7,55.4,39.6l0.1,0.1
						c0.1-0.1,0.2-0.4,0.1-0.5L55.4,39.6z M56.2,42.4c-0.1,0-0.3,0-0.3,0.2c0.2,0,0.3-0.1,0.5-0.2C56.3,42.3,56.2,42.3,56.2,42.4z
						 M56.4,42.3L56.4,42.3c0.2,0,0.5-0.2,0.6-0.3C56.8,41.9,56.7,42.1,56.4,42.3z M57.6,41.1c-0.1,0.1-0.2,0.2-0.1,0.3L57.6,41.1
						L57.6,41.1z"/>
				</g>
				<g>
					<path class="st3" d="M62.6,38.2c0.5-0.1,1.2-0.2,1.5-0.3c0.4,0.1,0.6,0.2,0.8,0.5c-0.1,0.1-0.1,0.3,0,0.5c0,0-0.1,0-0.1,0.1
						l0,0c0,0-0.1,0-0.1,0c0,0-0.1,0-0.1,0.1c0,0,0,0,0,0.1c-0.5,0.1-1.2,0-1.9,0.3h-0.1v-0.1c-0.1,0-0.1,0-0.2,0.1
						c-0.3,0-0.4,0.1-0.5,0.7c0,0.1-0.1,0.2-0.2,0.2l0.1,0c0,0.2-0.2,0.5-0.2,0.5c-0.1,0,0-0.2-0.1-0.2c-0.1,0-0.1,0.2-0.1,0.3
						c0,0.1,0,0.2,0,0.2c0,0.1-0.1,0.3-0.1,0.3c-0.1,0,0-0.2-0.1-0.2c-0.1,0.2-0.1,0.3-0.2,0.4l0.1,0c0-0.1,0.1-0.1,0.2-0.1
						c-0.2,0.4-0.3,0.9-0.4,1.2c-0.2,0-0.4,0-0.5,0l0-0.1c-0.2-0.1-0.2-0.4-0.2-0.7c0,0-0.1-0.1-0.1-0.2c0-0.2,0.5-1.4,0.9-2.4h-0.6
						c-0.4,0-0.4,0.1-0.7,0c-0.1-0.2-0.3-0.6-0.3-0.8c0-0.1,0-0.2,0.1-0.3c0.3,0,1.1,0.1,1.6,0c0.8-0.2,0.5-1,1.2-1L62.6,38.2z
						 M61.6,40.4l-0.1,0.1l0,0.1L61.6,40.4L61.6,40.4z"/>
				</g>
				<g>
					<path class="st3" d="M66.8,39L66.8,39c-0.3,0.3-0.4,0.9-0.8,1.1l0,0.1l-0.3,0.2c-0.3,0.5-0.5,1-0.6,1.5c0,0.1-0.1,0.2,0,0.2
						c0,0,0.1-0.2,0.1-0.2c0.2-0.4,0.3-1.1,0.6-1.4c0.1,0,0,0.1,0,0.1c-0.3,0.5-0.4,1-0.7,1.6c-0.2,0.4-0.2,0.7-0.2,0.9
						c-0.1,0-0.3-0.1-0.4-0.2v-0.3c-0.1,0-0.1,0.1-0.1,0.2c-0.2-0.1-0.3-0.3-0.5-0.6c0-1.5,1.5-3.5,2.1-4.6c0-0.1,0.2-0.1,0.2-0.1
						c0.1,0,0.2,0,0.3,0.1v0.2c0.2,0.1,0.3,0.3,0.3,0.4C66.9,38.4,66.8,38.7,66.8,39z M64.9,42.3l-0.1,0.2c0,0,0,0.1,0.1,0
						L64.9,42.3C64.8,42.1,64.9,42.3,64.9,42.3z"/>
				</g>
				<g>
					<path class="st3" d="M71.4,41.1c0,0.1,0,0.2-0.1,0.2l-0.1-0.1c-0.1,0-0.1,0-0.1,0.1c-0.1,0-0.2,0.1-0.2,0.2
						c0,0.1-0.1,0.1-0.2,0.1c-0.1,0.1-0.2,0.2-0.3,0.3l-0.1-0.1c-0.2,0.1-0.1,0.2-0.3,0.3c-0.1,0.1-0.3,0.1-0.4,0.1
						c0,0,0.1,0.1,0.1,0.1l-0.1,0l-0.2-0.1c-0.1,0.1,0,0.3-0.2,0.3c-0.2,0.1-0.4,0.1-0.6,0.2c-0.1-0.1-0.3-0.1-0.4,0
						c-0.3-0.2-0.6-0.5-0.9-0.6c-0.2-0.2-0.3-0.6-0.3-1c0-2,2.5-3.3,3.1-3.3c0.2,0,0.4,0.1,0.6,0.3c0,0.4,0.4,0.7,0.7,0.9
						c0.3,0.2,0.4,0.6,0.4,1.1C71.8,40.5,71.7,40.9,71.4,41.1z M70.5,39.4C70.4,39.4,70.4,39.3,70.5,39.4c-0.1-0.1-0.1,0-0.2,0
						c-0.1,0-0.1-0.1-0.1-0.1c-0.4,0-1.2,0.5-1.5,1c-0.4,0.2-0.7,0.7-0.8,1.2c0.2,0,0.4,0,0.6-0.1l1.5-0.6c0.2-0.1,0.5-0.2,0.7-0.4
						l0.4-0.5L70.5,39.4z M68.4,40.4c-0.1-0.1-0.3,0-0.3,0.1c0,0,0,0.1,0.1,0.1L68.4,40.4z M68.5,42.7c0,0-0.1-0.1-0.1-0.1
						c0,0-0.1,0-0.1,0L68.5,42.7z M69.5,42.1C69.5,42.1,69.5,42.2,69.5,42.1c0,0.1,0.1,0.1,0.1,0.1C69.7,42.1,69.6,42.1,69.5,42.1z
						 M70,41.8c-0.1,0.1-0.2,0.1-0.2,0.2L70,41.8L70,41.8z M70.2,41.6l-0.1,0.1l0,0.1l0.2-0.1C70.3,41.8,70.2,41.7,70.2,41.6z"/>
				</g>
				<g>
					<path class="st3" d="M77.6,38.1c0.1-0.1,0.3-0.1,0.4-0.1c0.3,0,0.5,0,0.7,0.1l-0.2,0.1l0,0c0.1,0,0.2,0,0.3-0.1l0.2,0.2
						c-0.4,0.2-1.2,0.8-1.6,1.3c0,0.1-0.1,0-0.1,0c0,0.3-0.2,0.5-0.4,0.8c0,0.1,0,0.2-0.1,0.3c0,0-0.1,0.1-0.1,0.2
						c-0.2,0.6-0.5,1.3-0.8,2l-0.4-0.2l0,0.1C75,42.8,75,42.6,74.9,42c0-0.2,0-0.6,0-0.8c-0.2-0.6,0-0.8-0.1-1.2l0-0.3
						c-0.3,0.1-0.5,0.3-0.8,0.7l0,0.1c-0.4,0.8-0.8,1.8-1.2,2.3h-0.2c-0.2,0-0.4-0.6-0.5-0.6l0-0.4c0-0.3,0-0.3,0.1-0.5
						c0.6-1.4,1.5-2.3,2.2-2.9c0.2,0.1,0.9,0.5,1,0.8c0.1,0.2,0.2,0.8,0.3,1.1c0.6-1,1.4-2.2,1.6-2.3l0.2,0
						c-0.5,0.5-0.9,1.1-1.1,1.4c-0.1,0.1-0.1,0.2-0.1,0.2l0,0C76.6,39.3,77.1,38.6,77.6,38.1z M74.4,38.7l-0.2,0.2
						C74.3,38.9,74.4,38.8,74.4,38.7L74.4,38.7z M76.8,41.3L76.8,41.3c-0.1-0.2-0.1-0.3,0-0.3L76.8,41.3z M77.5,39.4
						c-0.1,0.1-0.2,0.3-0.1,0.3L77.5,39.4C77.5,39.4,77.5,39.4,77.5,39.4z M77.4,38.5l0.1-0.2l-0.1,0C77.5,38.3,77.4,38.4,77.4,38.5
						C77.4,38.5,77.4,38.5,77.4,38.5z M77.7,39.1l-0.2,0.2c0,0,0.1,0,0.1,0L77.7,39.1C77.8,39.1,77.7,39,77.7,39.1z M78.3,38.4
						L78.3,38.4c0.1,0,0.2,0,0.2-0.1L78.3,38.4z"/>
				</g>
				<g>
					<path class="st3" d="M82.1,38c0.3,0.1,0.4,0.3,0.4,0.7c0,0,0.1,0.1,0.1,0.1c0,0.2-0.3,0.4-0.6,0.5c-0.2-0.2,0.1-0.2,0-0.3
						c-0.8,0-1.3,0.2-2,0.7v0.1l0.3,0.2c0.4,0.2,0.7,0.4,0.9,0.6l0.1-0.1c0.2,0.3,0.4,0.6,0.4,0.8l0,0.7l-0.1,0
						c-0.2,0.3-0.7,0.6-1.2,0.8c-0.3-0.1-0.4-0.1-0.4,0.2c-0.4,0.1-0.8,0.2-0.9,0.2c-0.1,0-0.3-0.1-0.5-0.3
						c-0.3-0.1-0.4-0.3-0.4-0.4c-0.1-0.1-0.2-0.3-0.2-0.4c0-0.2,0.1-0.3,0.3-0.4c0.1,0.1,0.4,0.4,0.5,0.4c0.4,0,1.2-0.2,1.7-0.7
						v-0.1c-0.2-0.2-0.4-0.6-0.5-0.5c-0.2-0.3-0.3-0.4-0.5-0.3c-0.1-0.1-0.3-0.3-0.4-0.5c0-0.3-0.1-0.6-0.1-0.7
						c0-0.7,1.4-1.4,2.4-1.4C81.6,37.8,81.9,37.8,82.1,38L82.1,38z M79.9,42.8l-0.3,0.1l0,0.1L79.9,42.8L79.9,42.8z M80.7,39.1
						c-0.3,0.1-0.6,0.2-0.6,0.3L80.7,39.1L80.7,39.1z M82.3,39.2l0.2-0.1C82.5,39.2,82.4,39.2,82.3,39.2L82.3,39.2z"/>
				</g>
			</g>
			<g>
				<g>
					<circle class="st0" cx="67.2" cy="36.6" r="0.9"/>
				</g>
			</g>
		</g>
	</g>
</g>
</svg>
